<?xml version="1.0" encoding="UTF-8"?>
<svg width="121px" height="34px" viewBox="0 0 121 34" version="1.1" xmlns="http://www.w3.org/2000/svg" xmlns:xlink="http://www.w3.org/1999/xlink">
    <!-- Generator: Sketch 55.2 (78181) - https://sketchapp.com -->
    <title>logo</title>
    <desc>Created with Sketch.</desc>
    <defs>
        <path d="M22.9622621,15.5308642 L8.43912197,15.5308642 L15.700692,0 L22.9622621,15.5308642 Z M25.448205,20.8477366 L31.4013841,33.5802469 L0,33.5802469 L5.95317907,20.8477366 L25.448205,20.8477366 Z M21.3529412,25.4650206 L21.3529412,29.6625514 L25.5397924,29.6625514 L25.5397924,25.4650206 L21.3529412,25.4650206 Z" id="path-1"></path>
    </defs>
    <g id="Seller-new" stroke="none" stroke-width="1" fill="none" fill-rule="evenodd">
        <g id="-g-001_login" transform="translate(-616.000000, -143.000000)">
            <g id="logo" transform="translate(616.000000, 143.000000)">
                <g id="Group">
                    <polygon id="Path" fill="#FE6B5A" fill-rule="nonzero" points="12.0218632 5.18275443 12.0218632 34 7.25809769 34 7.25809769 5.18275443 0 5.18275443 0 0.419753086 19.2595156 0.419753086 19.2595156 5.18275443"></polygon>
                    <path d="M21.2133795,13.9868773 L25.797883,13.9868773 L25.797883,15.7744971 C26.6400774,14.8841073 27.3871742,14.2745419 28.0391958,13.9457826 C28.7048011,13.603325 29.4926486,13.4320988 30.402762,13.4320988 C31.6117186,13.4320988 32.8749914,13.8293436 34.1926182,14.6238453 L32.0939344,18.8566002 C31.2245724,18.2264782 30.3755987,17.9114219 29.546988,17.9114219 C27.0475721,17.9114219 25.797883,19.8154577 25.797883,23.6235863 L25.797883,34 L21.2133795,34 L21.2133795,13.9868773 Z" id="Path" fill="#FE6B5A" fill-rule="nonzero"></path>
                    <path d="M42.1466291,13.9917695 L42.1466291,25.1540458 C42.1466291,28.3756133 43.4495275,29.9863729 46.0553633,29.9863729 C48.6611992,29.9863729 49.9640976,28.3756133 49.9640976,25.1540458 L49.9640976,13.9917695 L54.5686275,13.9917695 L54.5686275,25.2538873 C54.5686275,26.811422 54.3708052,28.1559403 53.9751547,29.2874826 C53.5931474,30.2992146 52.931466,31.2110909 51.9900907,32.0231389 C50.4347751,33.3410529 48.4565524,34 46.0553633,34 C43.6678174,34 41.6964161,33.3410529 40.1411005,32.0231389 C39.1860821,31.2110909 38.5107578,30.2992146 38.1151074,29.2874826 C37.7331,28.3822488 37.5420992,27.0377305 37.5420992,25.2538873 L37.5420992,13.9917695 L42.1466291,13.9917695 Z" id="Path" fill="#FE6B5A" fill-rule="nonzero"></path>
                    <path d="M95.4602076,13.9868773 L100.044711,13.9868773 L100.044711,15.7744971 C100.886906,14.8841073 101.634002,14.2745419 102.286024,13.9457826 C102.951629,13.603325 103.739477,13.4320988 104.64959,13.4320988 C105.858547,13.4320988 107.12182,13.8293436 108.439446,14.6238453 L106.340763,18.8566002 C105.471401,18.2264782 104.622427,17.9114219 103.793816,17.9114219 C101.2944,17.9114219 100.044711,19.8154577 100.044711,23.6235863 L100.044711,34 L95.4602076,34 L95.4602076,13.9868773 Z" id="Path" fill="#FE6B5A" fill-rule="nonzero"></path>
                    <polygon id="Path" fill="#FE6B5A" fill-rule="nonzero" points="117.405442 18.3388894 117.405442 34 112.783867 34 112.783867 18.3388894 110.811995 18.3388894 110.811995 14.0341338 112.783867 14.0341338 112.783867 6.71604938 117.405442 6.71604938 117.405442 14.0341338 121 14.0341338 121 18.3388894"></polygon>
                    <g id="Rectangle" transform="translate(58.615917, 0.000000)">
                        <mask id="mask-2" fill="white">
                            <use xlink:href="#path-1"></use>
                        </mask>
                        <use id="Mask-2" fill="#FE6B5A" xlink:href="#path-1"></use>
                    </g>
                </g>
            </g>
        </g>
    </g>
</svg>