<svg xmlns="http://www.w3.org/2000/svg" width="14" height="18" viewBox="0 0 14 18">
    <path fill="#FE6B5A" fill-rule="evenodd" d="M9.704 6.027V4.3c0-.466-.123-.905-.367-1.316a2.697 2.697 0 0 0-.996-.977c-.419-.24-.866-.36-1.341-.36s-.922.12-1.341.36c-.42.24-.751.565-.996.977-.244.411-.367.85-.367 1.316v1.728h5.408zM7 13.742c.475 0 .887-.172 1.237-.515.349-.342.523-.747.523-1.213 0-.467-.174-.871-.523-1.214A1.707 1.707 0 0 0 7 10.286c-.475 0-.887.171-1.237.514-.349.343-.523.747-.523 1.214 0 .466.174.87.523 1.213.35.343.762.515 1.237.515zm5.24-7.715c.475 0 .887.165 1.236.494.35.33.524.727.524 1.193v8.6c0 .465-.175.863-.524 1.192-.35.33-.761.494-1.236.494H1.76c-.475 0-.887-.165-1.236-.494A1.58 1.58 0 0 1 0 16.313V7.714c0-.466.175-.864.524-1.193.35-.329.761-.494 1.236-.494h.86V4.3c0-.781.195-1.501.587-2.16A4.315 4.315 0 0 1 4.799.576 4.352 4.352 0 0 1 7 0c.796 0 1.53.192 2.2.576.671.384 1.202.905 1.593 1.563a4.15 4.15 0 0 1 .587 2.16v1.728h.86z"/>
</svg>
