<svg xmlns="http://www.w3.org/2000/svg" width="14" height="14" viewBox="0 0 14 14">
    <path fill="#FE6B5A" fill-rule="nonzero" d="M14 7c0-3.86-3.14-7-7-7S0 3.14 0 7c0 2.039.877 3.876 2.272 5.157l-.007.005.228.192.045.035a7.035 7.035 0 0 0 1.01.696c.155.089.314.172.478.25l.036.016c.532.247 1.1.428 1.693.535l.047.009c.184.032.37.057.559.074l.069.006c.188.015.378.025.57.025.19 0 .379-.01.566-.025l.07-.005c.188-.017.373-.042.555-.073l.048-.009a6.937 6.937 0 0 0 1.669-.523c.019-.009.039-.017.058-.027a7.035 7.035 0 0 0 .975-.557c.047-.032.093-.066.14-.1.112-.08.221-.163.328-.25.024-.019.05-.035.072-.055l.233-.194-.007-.006A6.982 6.982 0 0 0 14 7zM.51 7C.51 3.42 3.42.51 7 .51S13.49 3.42 13.49 7a6.475 6.475 0 0 1-2.185 4.852 1.908 1.908 0 0 0-.228-.136l-2.155-1.078a.564.564 0 0 1-.314-.507v-.753a5.187 5.187 0 0 0 .823-1.512.924.924 0 0 0 .531-.837v-.902c0-.221-.08-.435-.226-.603V4.336c.014-.133.06-.878-.479-1.493-.47-.536-1.228-.807-2.257-.807-1.029 0-1.788.271-2.257.807-.54.615-.493 1.36-.48 1.492v1.188a.927.927 0 0 0-.225.603v.903c0 .28.126.541.34.718.207.808.631 1.419.788 1.626v.737a.568.568 0 0 1-.296.498l-2.012 1.098a1.84 1.84 0 0 0-.192.121A6.475 6.475 0 0 1 .51 7z"/>
</svg>
