<?xml version="1.0" encoding="UTF-8"?>
<svg width="9px" height="9px" viewBox="0 0 9 9" version="1.1" xmlns="http://www.w3.org/2000/svg" xmlns:xlink="http://www.w3.org/1999/xlink">
    <!-- Generator: Sketch 55.2 (78181) - https://sketchapp.com -->
    <title>23187</title>
    <desc>Created with Sketch.</desc>
    <g id="Seller-new" stroke="none" stroke-width="1" fill="none" fill-rule="evenodd">
        <g id="-g-003_Create-account(verified)" transform="translate(-193.000000, -401.000000)" fill="#FFFFFF" fill-rule="nonzero">
            <g id="Group-2" transform="translate(83.000000, 103.000000)">
                <g id="Group" transform="translate(28.000000, 89.000000)">
                    <g id="Group-4" transform="translate(82.000000, 206.000000)">
                        <g id="23187" transform="translate(0.000000, 3.000000)">
                            <path d="M8.51513812,0.4843125 C8.20352155,0.17184375 7.7878453,0 7.34657599,0 C6.90530668,0 6.49019291,0.1715625 6.1782951,0.48375 L1.20789834,5.42559375 C1.17836788,5.45484375 1.15586849,5.49 1.14180637,5.5288125 L0.0168368128,8.6225625 C-0.0194434556,8.72240625 0.0038996628,8.8351875 0.0773039267,8.91253125 C0.131302466,8.96934375 0.205269214,9 0.281485902,9 C0.309047656,9 0.33660941,8.9960625 0.363889922,8.987625 L3.16197046,8.12925 C3.20584428,8.11603125 3.2457807,8.09184375 3.27840481,8.0595 L8.51541936,2.82234375 C8.8281609,2.5104375 9,2.09475 9,1.6531875 C8.99971876,1.21190625 8.8281609,0.7965 8.51513812,0.4843125 Z M2.83854171,7.64015625 L1.79119505,7.96190625 C1.73016545,7.78275 1.63510553,7.624125 1.50545278,7.49446875 C1.39267459,7.38225 1.26189687,7.2950625 1.1240881,7.2241875 L1.60332514,5.90625 L2.25018263,5.90625 L2.25018263,6.46875 C2.25018263,6.62428125 2.37589798,6.75 2.53142502,6.75 L3.02781784,6.75 L2.83854171,7.64015625 Z M6.9784297,3.56371875 L3.55177242,6.99046875 L3.65020725,6.52725 C3.66764428,6.444 3.64683234,6.35765625 3.59339629,6.29184375 C3.53996024,6.22575 3.45980615,6.1875 3.37515219,6.1875 L2.81266741,6.1875 L2.81266741,5.625 C2.81266741,5.46975 2.68667082,5.34375 2.53142502,5.34375 L2.08762453,5.34375 L5.43244028,2.01796875 L5.43581519,2.0210625 C5.64168462,1.81490625 5.91589595,1.7015625 6.20698182,1.7015625 C6.4980677,1.7015625 6.77256027,1.81490625 6.97814846,2.0210625 C7.18373664,2.22721875 7.2982023,2.50115625 7.2982023,2.79253125 C7.2982023,3.08390625 7.18486161,3.3575625 6.9784297,3.56371875 Z M8.11746138,2.42465625 L7.85534347,2.6870625 C7.83003166,2.28515625 7.66325492,1.91053125 7.37638768,1.623375 C7.0892392,1.3359375 6.71434309,1.1694375 6.31132275,1.14440625 L6.57512811,0.8825625 L6.5756906,0.882 C6.78099754,0.67584375 7.05520887,0.5625 7.34657599,0.5625 C7.6379431,0.5625 7.91187319,0.67584375 8.11746138,0.882 C8.32389329,1.08815625 8.43751522,1.36209375 8.43751522,1.6531875 C8.43751522,1.94484375 8.32445578,2.21878125 8.11746138,2.42465625 Z" id="Shape"></path>
                        </g>
                    </g>
                </g>
            </g>
        </g>
    </g>
</svg>